<svg id="Layer_1" data-name="Layer 1" xmlns="http://www.w3.org/2000/svg" viewBox="0 0 523.49 44.82"><g id="Objects"><path d="M733,922.88l-1.19,7.68q3.13-2.91,6.36-5.72l3.76-3.22,1.89-1.57a6.22,6.22,0,0,0,1.44-1.71,5.58,5.58,0,0,0,.42-4.44,5.79,5.79,0,0,0-7.77-3.51,6,6,0,0,0-3.28,3.49c-.39,1.47-.59,3-.88,4.49S733.18,921.37,733,922.88Z" transform="translate(-238.26 -909.43)"/><path d="M737.87,953.58a5.8,5.8,0,0,0,7.77-3.51,5.62,5.62,0,0,0-.42-4.44,6.22,6.22,0,0,0-1.44-1.71l-1.89-1.57-3.76-3.22q-3.23-2.8-6.37-5.72l1.2,7.68c.22,1.51.49,3,.75,4.51s.49,3,.87,4.49A6,6,0,0,0,737.87,953.58Z" transform="translate(-238.26 -909.43)"/><path d="M267.23,941l1.2-7.74Q265.27,936.2,262,939l-3.78,3.25-1.91,1.57a6.64,6.64,0,0,0-1.45,1.72,5.65,5.65,0,0,0-.42,4.47,5.83,5.83,0,0,0,7.82,3.54,6,6,0,0,0,3.31-3.52c.38-1.48.59-3,.88-4.51S267,942.53,267.23,941Z" transform="translate(-238.26 -909.43)"/><path d="M262.28,910.11a5.83,5.83,0,0,0-7.82,3.54,5.62,5.62,0,0,0,.42,4.46,6.32,6.32,0,0,0,1.45,1.72l1.91,1.58,3.78,3.25c2.17,1.88,4.3,3.81,6.41,5.76l-1.2-7.74c-.23-1.52-.51-3-.76-4.54s-.5-3-.88-4.52A6,6,0,0,0,262.28,910.11Z" transform="translate(-238.26 -909.43)"/><path d="M754.17,924.41a7.35,7.35,0,0,0-1.42.13l-.69.16a6.71,6.71,0,0,0-.75.27l-19.22,6.67-.43.34c.14.12.28.24.43.35L751.31,939c.24.1.5.19.75.27s.45.12.69.16a7.28,7.28,0,0,0,1.42.13,7.58,7.58,0,0,0,0-15.15Z" transform="translate(-238.26 -909.43)"/><path d="M732.09,931.64q3.51-2.82,6.92-5.75l3.72-3.25,1.85-1.67a6.91,6.91,0,0,0,1.6-2.15,6.51,6.51,0,0,0,.14-5.17,6.3,6.3,0,0,0-8.49-3.35,6.23,6.23,0,0,0-3.25,3.58,6,6,0,0,1,3.29-3.49,5.8,5.8,0,0,1,7.77,3.51,5.62,5.62,0,0,1-.42,4.44,6.4,6.4,0,0,1-1.44,1.71l-1.89,1.57-3.76,3.22q-3.23,2.8-6.37,5.72l1.2-7.68c.22-1.51.49-3,.75-4.51s.49-3,.87-4.49c-.41,1.47-.62,3-1,4.47s-.63,3-1,4.48l-1.92,8.41-.42-.33.24,1.07h0l-.24,1.07.42-.33,1.92,8.41c.35,1.49.65,3,1,4.48s.54,3,1,4.47c-.38-1.47-.59-3-.87-4.49s-.53-3-.75-4.51l-1.2-7.68q3.15,2.91,6.37,5.72l3.76,3.22,1.89,1.57a6.4,6.4,0,0,1,1.44,1.71,5.62,5.62,0,0,1,.42,4.44,5.8,5.8,0,0,1-7.77,3.51,6,6,0,0,1-3.29-3.49,6.23,6.23,0,0,0,3.25,3.58,6.29,6.29,0,0,0,8.49-3.36,6.48,6.48,0,0,0-.14-5.16,6.91,6.91,0,0,0-1.6-2.15l-1.85-1.67L739,938.08q-3.42-2.93-6.92-5.75l-.43-.34C731.8,931.87,731.94,931.75,732.09,931.64Z" transform="translate(-238.26 -909.43)"/><path d="M268.11,931.49l-19.35-6.71a6.81,6.81,0,0,0-.76-.26c-.23-.07-.46-.12-.69-.17a8.36,8.36,0,0,0-1.43-.13,7.63,7.63,0,0,0,0,15.25,7.46,7.46,0,0,0,1.43-.14,5.73,5.73,0,0,0,.69-.16,6.81,6.81,0,0,0,.76-.26l19.35-6.72.43-.35C268.39,931.73,268.25,931.61,268.11,931.49Z" transform="translate(-238.26 -909.43)"/><path d="M269.67,932l0-.14.25-1.08-.42.34-1.94-8.47c-.35-1.5-.65-3-1-4.5s-.55-3-1-4.51c.38,1.49.59,3,.88,4.52s.53,3,.76,4.54l1.2,7.74c-2.11-1.95-4.24-3.88-6.41-5.76l-3.78-3.25-1.91-1.58a6.32,6.32,0,0,1-1.45-1.72,5.62,5.62,0,0,1-.42-4.46,5.84,5.84,0,0,1,7.83-3.54,6,6,0,0,1,3.3,3.51,6.2,6.2,0,0,0-3.27-3.6,6.32,6.32,0,0,0-8.53,3.38,6.51,6.51,0,0,0,.13,5.19,6.64,6.64,0,0,0,1.62,2.16l1.86,1.68,3.74,3.27q3.44,3,7,5.79l.43.35c-.14.12-.28.24-.43.35-2.35,1.89-4.67,3.83-7,5.79l-3.74,3.28-1.86,1.67a6.85,6.85,0,0,0-1.62,2.16,6.54,6.54,0,0,0-.13,5.2,6.32,6.32,0,0,0,8.53,3.38,6.22,6.22,0,0,0,3.27-3.61,6,6,0,0,1-3.3,3.52,5.84,5.84,0,0,1-7.83-3.54,5.65,5.65,0,0,1,.42-4.47,6.64,6.64,0,0,1,1.45-1.72l1.91-1.57L262,939q3.25-2.84,6.41-5.76l-1.2,7.74c-.23,1.52-.5,3-.76,4.54s-.5,3-.88,4.51c.41-1.47.62-3,1-4.5s.63-3,1-4.5l1.94-8.47.42.33-.22-.93h0Z" transform="translate(-238.26 -909.43)"/><polygon points="146.32 18.99 261.84 19.24 377.37 19 435.13 18.7 492.89 18.18 492.88 18.18 435.13 17.66 377.37 17.37 261.84 17.12 146.32 17.37 88.56 17.67 30.8 18.18 30.8 18.18 88.56 18.7 146.32 18.99"/><polygon points="492.3 22.54 435.13 22.03 377.37 21.73 261.84 21.49 146.32 21.74 88.56 22.04 31.41 22.54 30.8 22.55 31.42 22.55 88.56 23.07 146.32 23.36 261.84 23.61 377.37 23.36 435.13 23.07 492.3 22.55 492.89 22.55 492.3 22.54"/><polygon points="377.37 26.1 261.84 25.86 146.32 26.11 88.56 26.4 30.8 26.92 88.56 27.43 146.32 27.73 261.84 27.98 377.37 27.73 435.13 27.44 492.89 26.92 435.13 26.4 377.37 26.1"/></g></svg>