<svg xmlns="http://www.w3.org/2000/svg" viewBox="0 0 394.28 54.96"><defs><style>.cls-1{fill:#fff;}</style></defs><g id="Layer_2" data-name="Layer 2"><g id="Layer_1-2" data-name="Layer 1"><path class="cls-1" d="M16.93,63.84a15.12,15.12,0,0,1-15-14.72H3.31a13.62,13.62,0,0,0,27.23-.46,13.63,13.63,0,0,0-5.38-11.47c-3.56-2.79-7.39-2.73-11.22-4-4-1.43-6.09-4.09-6.09-8.18a8.82,8.82,0,0,1,9.27-9c5.06,0,8.24,4,8.56,9.14H24.12c0-4.54-2.65-7.45-7-7.45-5.06,0-7.85,2.78-7.85,7.32,0,3.64,1.56,5.71,5.26,6.88s7.91,1.42,11.54,4.21c4,3.05,5.9,6.81,5.9,12.58A15.08,15.08,0,0,1,16.93,63.84ZM30,25.12A13.15,13.15,0,0,0,17.12,11.7,13,13,0,0,0,3.7,25c0,6.29,3.11,10.06,8.23,12,3.5,1.3,7.53,1,10.83,3.44,2.53,1.81,3.63,4.54,3.63,8.23a9.23,9.23,0,0,1-9.46,9.47c-4.54,0-9.15-4.08-9.21-9H9.27c0,4.54,2.86,7.46,7.66,7.46a7.76,7.76,0,0,0,8-7.92c0-3.37-.84-5.51-3.18-7.19-3-2.14-7.84-2.14-10.44-3.25-5.64-2.27-9-5.83-9-13.23,0-8.69,6.48-14.72,14.85-14.72A14.48,14.48,0,0,1,31.58,25.12Zm-13-10.44C10.89,14.68,6.42,18.83,6.42,25c0,4.74,2.59,7.79,6.81,9.28,3.89,1.36,7.72,1.29,11.15,3.89,3.25,2.46,4.93,5.84,4.93,10.5A12.62,12.62,0,0,1,16.93,61.12c-6.29,0-11.81-5.45-12.13-12H6.29a10.49,10.49,0,0,0,10.64,10.5,11,11,0,0,0,10.76-11,11.16,11.16,0,0,0-4.21-9.33c-3.25-2.53-7.2-2.14-11-3.7C8,33.88,5,30.44,5,25c0-7,5.19-12,12.13-12,6.42,0,11.35,5.64,11.54,12.12H27.24A10.14,10.14,0,0,0,17.06,14.68Z" transform="translate(-1.88 -8.87)"/><path class="cls-1" d="M62.64,12.67H33.07V11.18H62.64ZM48.57,62.87H47.08V15.59h-14V14.16H62.64v1.43H48.57Zm-2.92,0H44.16V18.57H33.07V17.08H45.65Zm5.9,0H50V17.08H62.64v1.49H51.55Z" transform="translate(-1.88 -8.87)"/><path class="cls-1" d="M95.26,48.53V62.87H93.77V48.53a12.67,12.67,0,0,0-6.36-11.47c4.41-2.47,6-6.23,6-11.55,0-8.1-5.06-12.84-13.23-12.84H67.11v50.2H65.69V11.18H80.21c9,0,14.66,5.06,14.66,14.33,0,6-2.08,9.41-5.25,11.55A13.42,13.42,0,0,1,95.26,48.53ZM70.1,37.77v25.1H68.54V14.16H80.21c7.4,0,11.94,4.48,11.94,11.35,0,6-3.05,10.25-7.79,11.55,5.19,1.42,8,6.16,8,11.47V62.87H90.78V48.53c0-6-4.08-10.76-10.57-10.76Zm10.11-1.43c6.88,0,10.57-4.73,10.57-10.83S87,15.59,80.21,15.59H70.1V36.34ZM71.52,17.08h8.69c6,0,9.15,3.24,9.15,8.43,0,6.16-3.76,9.41-9.15,9.41H71.52ZM89.36,48.53V62.87H87.93V48.53c0-4.66-2.92-7.84-7.72-7.84H73V62.87h-1.5V39.33h8.69C86,39.33,89.36,42.76,89.36,48.53ZM80.21,33.42C84.69,33.42,88,31,88,25.51c0-4.6-2.86-6.94-7.79-6.94H73V33.42Z" transform="translate(-1.88 -8.87)"/><path class="cls-1" d="M101.55,62.87h-1.49V11.18h1.49Zm3,0H103V11.18h1.56Zm2.85,0H106V11.18h1.42Z" transform="translate(-1.88 -8.87)"/><path class="cls-1" d="M113.61,62.87h-1.43V24.8c0-8.56,6.55-14.53,14.72-14.53s14.72,6,14.72,14.53V62.87h-1.49V24.8a13.26,13.26,0,0,0-26.52,0Zm3,0H115.1V24.8a11.77,11.77,0,0,1,23.54,0V62.87h-1.49V24.8c0-6-4.28-10.12-10.25-10.12s-10.24,4.15-10.24,10.12Zm2.85,0h-1.43V24.8c0-5.38,4.15-8.63,8.82-8.63a8.45,8.45,0,0,1,8.76,8.63V62.87h-1.43V24.8c0-4.54-2.79-7.2-7.33-7.2s-7.39,2.66-7.39,7.2Z" transform="translate(-1.88 -8.87)"/><path class="cls-1" d="M175.28,49.31c0,8.5-6.55,14.53-14.72,14.53s-14.72-6-14.72-14.53V24.8c0-8.56,6.55-14.53,14.72-14.53s14.72,6,14.72,14.53v1.49h-1.49V24.8a13.27,13.27,0,0,0-26.53,0V49.31a13.27,13.27,0,0,0,26.53,0V37.57H160.43V36.08h14.85Zm-3,0a11.74,11.74,0,0,1-23.47,0V24.8a11.74,11.74,0,0,1,23.47,0v1.49H170.8V24.8c0-6-4.28-10.12-10.24-10.12s-10.25,4.15-10.25,10.12V49.31c0,5.9,4.28,10.12,10.25,10.12A9.81,9.81,0,0,0,170.8,49.31V40.49H160.43V39.07h11.86Zm-2.91,0c0,5.32-4.15,8.56-8.82,8.56s-8.82-3.24-8.82-8.56V24.8c0-5.38,4.15-8.63,8.82-8.63s8.82,3.25,8.82,8.63v1.49h-1.5V24.8c0-4.54-2.78-7.2-7.32-7.2s-7.4,2.66-7.4,7.2V49.31c0,4.48,2.86,7.14,7.4,7.14s7.32-2.66,7.32-7.14v-5.9h-7.45V42h8.95Z" transform="translate(-1.88 -8.87)"/><path class="cls-1" d="M206.75,11.09h8.58a.86.86,0,0,1,.63.26.88.88,0,0,1,.26.63V62a.89.89,0,0,1-.89.89h-8.65a.89.89,0,0,1-.89-.89V28.77q0-.3-.15-.3c-.1,0-.19.08-.29.23l-5.77,10.2c-.25.4-.45.59-.59.59s-.35-.19-.6-.59l-5.76-10.2c-.1-.15-.2-.23-.3-.23s-.15.1-.15.3V62a.82.82,0,0,1-.26.63.86.86,0,0,1-.63.26h-8.65a.89.89,0,0,1-.89-.89V12a.88.88,0,0,1,.26-.63.86.86,0,0,1,.63-.26h8.51a1.23,1.23,0,0,1,1.11.6l6.58,11.76c.15.19.29.19.44,0l6.36-11.76A1.13,1.13,0,0,1,206.75,11.09Z" transform="translate(-1.88 -8.87)"/><path class="cls-1" d="M248.65,19.78A.82.82,0,0,1,248,20H232.56a.33.33,0,0,0-.37.37V32.1a.33.33,0,0,0,.37.37h8.88a.88.88,0,0,1,.63.26.86.86,0,0,1,.26.63v7.17a.86.86,0,0,1-.26.63.88.88,0,0,1-.63.26h-8.88a.33.33,0,0,0-.37.37V53.55a.33.33,0,0,0,.37.37H248a.82.82,0,0,1,.63.26.85.85,0,0,1,.26.62V62a.89.89,0,0,1-.89.89H222.65a.89.89,0,0,1-.63-.26.85.85,0,0,1-.25-.63V12a.87.87,0,0,1,.25-.63.89.89,0,0,1,.63-.26H248a.86.86,0,0,1,.63.26.88.88,0,0,1,.26.63v7.18A.85.85,0,0,1,248.65,19.78Z" transform="translate(-1.88 -8.87)"/><path class="cls-1" d="M254.05,18.9a5.68,5.68,0,0,1-1.67-4.18,5.59,5.59,0,0,1,5.85-5.85,5.61,5.61,0,0,1,4.18,1.63A5.79,5.79,0,0,1,264,14.72a5.77,5.77,0,0,1-1.63,4.18,5.54,5.54,0,0,1-4.14,1.66A5.66,5.66,0,0,1,254.05,18.9Zm-.67,43.71a.86.86,0,0,1-.26-.63V25.74a.86.86,0,0,1,.26-.63.88.88,0,0,1,.63-.26h8.66a.85.85,0,0,1,.62.26.82.82,0,0,1,.26.63V62a.82.82,0,0,1-.26.63.85.85,0,0,1-.62.26H254A.88.88,0,0,1,253.38,62.61Z" transform="translate(-1.88 -8.87)"/><path class="cls-1" d="M274.65,61.76a12.25,12.25,0,0,1-5-4.77,13.8,13.8,0,0,1-1.78-7.07V47.78a.89.89,0,0,1,.89-.89h8.51a.85.85,0,0,1,.62.26.82.82,0,0,1,.26.63v1.63a5.53,5.53,0,0,0,1.19,3.69,3.69,3.69,0,0,0,3,1.41,3.77,3.77,0,0,0,3-1.33,5,5,0,0,0,1.19-3.48,5.43,5.43,0,0,0-1.48-3.81,44.59,44.59,0,0,0-5.77-4.69,71.51,71.51,0,0,1-6-4.74,18.59,18.59,0,0,1-3.92-5.1,14.57,14.57,0,0,1-1.63-7,13.34,13.34,0,0,1,3.92-10.06,16,16,0,0,1,20.82.15,13.83,13.83,0,0,1,4,10.28v1.78a.88.88,0,0,1-.26.63.86.86,0,0,1-.63.26h-8.51a.85.85,0,0,1-.62-.26.84.84,0,0,1-.26-.63v-2a5.53,5.53,0,0,0-1.15-3.66,3.72,3.72,0,0,0-3-1.37,3.61,3.61,0,0,0-2.89,1.3,5.33,5.33,0,0,0-1.11,3.58,6,6,0,0,0,1.41,3.92A33.2,33.2,0,0,0,284.85,33q4.59,3.39,6.92,5.51a15.92,15.92,0,0,1,3.62,4.66,13.23,13.23,0,0,1,1.3,6.1q0,6.51-4,10.35a14.47,14.47,0,0,1-10.5,3.85A16.09,16.09,0,0,1,274.65,61.76Z" transform="translate(-1.88 -8.87)"/><path class="cls-1" d="M329.86,11.35a.88.88,0,0,1,.26.63v7.18a.85.85,0,0,1-.26.62.82.82,0,0,1-.63.26H320a.33.33,0,0,0-.36.37V62a.86.86,0,0,1-.26.63.89.89,0,0,1-.63.26h-8.66a.85.85,0,0,1-.62-.26.82.82,0,0,1-.26-.63V20.41a.33.33,0,0,0-.37-.37h-8.88a.82.82,0,0,1-.63-.26.85.85,0,0,1-.26-.62V12a.88.88,0,0,1,.26-.63.86.86,0,0,1,.63-.26h29.29A.86.86,0,0,1,329.86,11.35Z" transform="translate(-1.88 -8.87)"/><path class="cls-1" d="M361.29,19.78a.82.82,0,0,1-.63.26H345.21a.34.34,0,0,0-.38.37V32.1a.33.33,0,0,0,.38.37h8.87a.89.89,0,0,1,.89.89v7.17a.89.89,0,0,1-.89.89h-8.87a.33.33,0,0,0-.38.37V53.55a.34.34,0,0,0,.38.37h15.45a.82.82,0,0,1,.63.26.85.85,0,0,1,.26.62V62a.89.89,0,0,1-.89.89H335.29a.85.85,0,0,1-.62-.26.82.82,0,0,1-.26-.63V12a.84.84,0,0,1,.26-.63.85.85,0,0,1,.62-.26h25.37a.86.86,0,0,1,.63.26.88.88,0,0,1,.26.63v7.18A.85.85,0,0,1,361.29,19.78Z" transform="translate(-1.88 -8.87)"/><path class="cls-1" d="M385.44,62.13l-5.7-20.42c-.1-.19-.22-.29-.37-.29h-2.51a.32.32,0,0,0-.37.37V62a.89.89,0,0,1-.89.89H367a.89.89,0,0,1-.89-.89V12a.88.88,0,0,1,.26-.63.86.86,0,0,1,.63-.26h14.94a13.6,13.6,0,0,1,7.25,2,13.11,13.11,0,0,1,4.92,5.51,18.41,18.41,0,0,1,1.73,8.14,17,17,0,0,1-1.66,7.69,12.59,12.59,0,0,1-4.62,5.18.51.51,0,0,0-.22.18.24.24,0,0,0,0,.26l6.8,21.82.07.3c0,.49-.27.74-.81.74h-8.88A1,1,0,0,1,385.44,62.13Zm-8.95-41.72V33.06a.32.32,0,0,0,.37.37h3.33a4.53,4.53,0,0,0,3.73-1.81,7.57,7.57,0,0,0,1.45-4.85,7.71,7.71,0,0,0-1.45-4.92A4.56,4.56,0,0,0,380.19,20h-3.33A.33.33,0,0,0,376.49,20.41Z" transform="translate(-1.88 -8.87)"/></g></g></svg>