<svg xmlns="http://www.w3.org/2000/svg" viewBox="0 0 69.59 53.57"><defs><style>.cls-1{fill:#fff;}</style></defs><g id="Layer_2" data-name="Layer 2"><g id="Layer_1-2" data-name="Layer 1"><path class="cls-1" d="M16.93,63.84a15.12,15.12,0,0,1-15-14.72H3.31a13.62,13.62,0,0,0,27.23-.46,13.63,13.63,0,0,0-5.38-11.47c-3.56-2.79-7.39-2.73-11.22-4-4-1.43-6.09-4.09-6.09-8.18a8.82,8.82,0,0,1,9.27-9c5.06,0,8.24,4,8.56,9.14H24.12c0-4.54-2.65-7.45-7-7.45-5.06,0-7.85,2.78-7.85,7.32,0,3.64,1.56,5.71,5.26,6.88s7.91,1.42,11.54,4.21c4,3.05,5.9,6.81,5.9,12.58A15.08,15.08,0,0,1,16.93,63.84ZM30,25.12A13.15,13.15,0,0,0,17.12,11.7,13,13,0,0,0,3.7,25c0,6.29,3.11,10.06,8.23,12,3.5,1.3,7.53,1,10.83,3.44,2.53,1.81,3.63,4.54,3.63,8.23a9.23,9.23,0,0,1-9.46,9.47c-4.54,0-9.15-4.08-9.21-9H9.27c0,4.54,2.86,7.46,7.66,7.46a7.76,7.76,0,0,0,8-7.92c0-3.37-.84-5.51-3.18-7.19-3-2.14-7.84-2.14-10.44-3.25-5.64-2.27-9-5.83-9-13.23,0-8.69,6.48-14.72,14.85-14.72A14.48,14.48,0,0,1,31.58,25.12Zm-13-10.44C10.89,14.68,6.42,18.83,6.42,25c0,4.74,2.59,7.79,6.81,9.28,3.89,1.36,7.72,1.29,11.15,3.89,3.25,2.46,4.93,5.84,4.93,10.5A12.62,12.62,0,0,1,16.93,61.12c-6.29,0-11.81-5.45-12.13-12H6.29a10.49,10.49,0,0,0,10.64,10.5,11,11,0,0,0,10.76-11,11.16,11.16,0,0,0-4.21-9.33c-3.25-2.53-7.2-2.14-11-3.7C8,33.88,5,30.44,5,25c0-7,5.19-12,12.13-12,6.42,0,11.35,5.64,11.54,12.12H27.24A10.14,10.14,0,0,0,17.06,14.68Z" transform="translate(-1.88 -10.27)"/><path class="cls-1" d="M62,11.09h8.58a.86.86,0,0,1,.63.26.88.88,0,0,1,.26.63V62a.89.89,0,0,1-.89.89H61.93a.86.86,0,0,1-.63-.26A.82.82,0,0,1,61,62V28.77q0-.3-.15-.3c-.1,0-.2.08-.3.23L54.83,38.9c-.25.4-.45.59-.6.59s-.34-.19-.59-.59L47.87,28.7c-.1-.15-.19-.23-.29-.23s-.15.1-.15.3V62a.89.89,0,0,1-.89.89H37.89A.89.89,0,0,1,37,62V12a.88.88,0,0,1,.26-.63.86.86,0,0,1,.63-.26h8.5a1.2,1.2,0,0,1,1.11.6l6.59,11.76c.14.19.29.19.44,0l6.36-11.76A1.13,1.13,0,0,1,62,11.09Z" transform="translate(-1.88 -10.27)"/></g></g></svg>