<svg xmlns="http://www.w3.org/2000/svg" viewBox="0 0 32 32"><defs><style>.cls-1{fill:#0b533b;}.cls-2{fill:#fff4df;}</style></defs><g id="Layer_1" data-name="Layer 1"><rect class="cls-1" width="32" height="32"/></g><g id="Layer_2" data-name="Layer 2"><path class="cls-2" d="M8.38,22a4.22,4.22,0,0,1-1.22-.14,3.4,3.4,0,0,1-.8-.32,5.65,5.65,0,0,1-.48-.32.47.47,0,0,0-.29-.14.43.43,0,0,0-.25.12q-.15.13-.3.3a2.24,2.24,0,0,1-.33.3.53.53,0,0,1-.32.14A.51.51,0,0,1,4,21.77a.55.55,0,0,1-.09-.43l.35-3a.8.8,0,0,1,.16-.47.5.5,0,0,1,.36-.16.43.43,0,0,1,.34.15,1.08,1.08,0,0,1,.25.43l.18.85a2.13,2.13,0,0,0,.8,1.41,2.41,2.41,0,0,0,1.52.49,2.13,2.13,0,0,0,1-.2,1.71,1.71,0,0,0,.67-.55,1.83,1.83,0,0,0,.32-.83,1.9,1.9,0,0,0-.25-1.36,4.61,4.61,0,0,0-1.52-1.33,5.75,5.75,0,0,1-1.82-1.66,3,3,0,0,1-.41-2,3.7,3.7,0,0,1,.67-1.75,4,4,0,0,1,1.57-1.3,5.47,5.47,0,0,1,2.44-.49,4.76,4.76,0,0,1,2.08.4,3.05,3.05,0,0,1,1.27,1,2.15,2.15,0,0,1,.4,1.31,1.44,1.44,0,0,1-.27.79.93.93,0,0,1-1.27.11,1.45,1.45,0,0,1-.38-.66l-.17-.64a2.07,2.07,0,0,0-.67-1.13,1.75,1.75,0,0,0-1.14-.37,2.42,2.42,0,0,0-1.11.24,2,2,0,0,0-.75.67,2.07,2.07,0,0,0-.35.93,2,2,0,0,0,.3,1.43A5.07,5.07,0,0,0,10,15.09a7.75,7.75,0,0,1,1.58,1.27,3.2,3.2,0,0,1,.74,1.22,3.3,3.3,0,0,1,.1,1.34,3,3,0,0,1-.62,1.59,3.54,3.54,0,0,1-1.4,1.08A4.74,4.74,0,0,1,8.38,22Z"/><path class="cls-2" d="M21.39,18.31l-.93.5,5.08-8.2a1.61,1.61,0,0,1,.59-.6,1.29,1.29,0,0,1,.6-.16H28.9a.55.55,0,0,1,.39.1.32.32,0,0,1,.09.28.42.42,0,0,1-.13.31.92.92,0,0,1-.29.17l-.47.11a.58.58,0,0,0-.31.2.93.93,0,0,0-.17.4c0,.23-.09.54-.17.92l-.24,1.28-.29,1.49L27,16.66c-.1.51-.19,1-.27,1.46s-.16.86-.22,1.21-.11.63-.13.81a.79.79,0,0,0,0,.44.47.47,0,0,0,.26.24l.49.12a.66.66,0,0,1,.25.15.33.33,0,0,1,.07.23.44.44,0,0,1-.16.33.67.67,0,0,1-.43.12H23a.55.55,0,0,1-.39-.11.37.37,0,0,1-.11-.3.39.39,0,0,1,.13-.28.92.92,0,0,1,.27-.16l.5-.12a.68.68,0,0,0,.35-.22,1,1,0,0,0,.21-.49c.06-.32.12-.68.2-1.08s.16-.83.25-1.29.18-.93.28-1.41.19-1,.29-1.47.18-1,.26-1.46.17-.94.24-1.38l.23,0-4.83,8a2.16,2.16,0,0,1-.46.53.85.85,0,0,1-.51.15.54.54,0,0,1-.4-.2,1.08,1.08,0,0,1-.25-.55c-.06-.36-.13-.75-.19-1.16s-.13-.84-.2-1.28-.13-.89-.2-1.35-.14-.93-.22-1.4l-.21-1.39c-.08-.46-.15-.92-.22-1.36l.32-.06-2.24,7.78a1.43,1.43,0,0,0,0,.76.58.58,0,0,0,.39.37l.41.12c.21.09.31.21.3.37a.41.41,0,0,1-.17.34.76.76,0,0,1-.46.12H14a.61.61,0,0,1-.41-.11.39.39,0,0,1-.1-.3.42.42,0,0,1,.13-.3.83.83,0,0,1,.31-.17l.35-.1a1,1,0,0,0,.39-.21A1.65,1.65,0,0,0,15,20.1a8,8,0,0,0,.33-.94l2.16-7.6a.86.86,0,0,0,0-.51.38.38,0,0,0-.27-.23l-.5-.14a.67.67,0,0,1-.25-.16.36.36,0,0,1-.07-.24.41.41,0,0,1,.17-.32A.72.72,0,0,1,17,9.85h2.14a1,1,0,0,1,.64.21,1.26,1.26,0,0,1,.36.74c.06.36.13.73.19,1.12s.13.79.2,1.2.13.84.2,1.26l.21,1.31c.07.44.15.88.23,1.32Z"/></g></svg>